<?xml version="1.0" encoding="utf-8"?>
<!-- Generator: Adobe Illustrator 25.0.0, SVG Export Plug-In . SVG Version: 6.00 Build 0)  -->
<svg version="1.1" id="Layer_1" xmlns="http://www.w3.org/2000/svg" xmlns:xlink="http://www.w3.org/1999/xlink" x="0px" y="0px"
	 viewBox="0 0 1716.2 432" style="enable-background:new 0 0 1716.2 432;" xml:space="preserve">
<style type="text/css">
	.st0{fill:#EC6608;}
	.st1{fill-rule:evenodd;clip-rule:evenodd;}
	.st2{fill-rule:evenodd;clip-rule:evenodd;fill:#FFFFFF;}
	.st3{fill:#FFFFFF;}
</style>
<g id="LABEL_SHAPE">
	<path class="st0" d="M696.2,231c-10.1-9.8-10.4-25.9-0.6-36c0.2-0.3,0.5-0.5,0.7-0.7l142.9-135c10.8-9.9,27.4-9.8,38.1,0.2
		l140.5,134.7c10.3,10,10.5,26.5,0.5,36.8c-0.1,0.1-0.2,0.2-0.4,0.4l-140.9,141c-10.4,10.4-27.2,10.5-37.8,0.2L696.2,231z"/>
</g>
<path d="M990.5,236.4c-0.5-1.1-1.6-1.8-2.8-1.8c-0.6,0-1.2,0.2-1.8,0.5l-0.4,0.2c-2.1,1.7-4.1,3.5-5.9,5.5c-0.2,0.3-0.5,0.6-0.7,0.8
	c-1.2,1.3-2.4,2.5-3.7,3.6l-0.1,0.1c-0.5,0.5-16.9,16.9-18.7,18.7c-2.3,2.2-4.3,4.2-5.7,5.7l-0.5,0.4c-1.2,1.1-2.4,2.2-3.5,3.5
	c-0.3,0.3-0.5,0.6-0.8,1c-0.2,0.2-0.3,0.4-0.5,0.6s-0.5,0.5-0.9,0.8s-0.8,0.6-1.1,0.9c-0.8,0.8-1.6,1.5-2.4,2.3l-0.8,0.8
	c-1.2,1.1-2.6,2.4-3.7,3.5c-0.8,0.8-1.5,1.6-2.2,2.4l-9.7,10.1l-4.3,4.6c-0.4,0.2-0.7,0.4-1.1,0.6l-4,3.6c-0.9,0.8-1.8,1.6-2.7,2.6
	l-3.3,3.6c-0.4,0.4-0.7,0.8-1.1,1.2l-0.1,0.1c-0.7,0.7-1.2,1.3-1.7,1.9c-0.5,0.2-0.9,0.5-1.3,0.8c-0.6,0.5-1.5,1.3-2.1,1.8
	c-0.4,0.3-0.8,0.7-1.2,1.2l-0.1,0.1c-0.2,0.2-0.4,0.4-0.6,0.6l-1.3,1.3c-0.1,0-0.1,0.1-0.2,0.2c-0.2,0.1-0.3,0.2-0.5,0.4l0,0
	c-0.1,0.1-0.2,0.2-0.3,0.4v0.1l-5.8,5.8l-11.4,11.4c-0.4,0.3-0.7,0.6-1.1,1c-0.6,0.6-1.3,1.3-1.8,1.9c-0.3,0.4-0.7,0.7-1.1,1.1
	l-2.2,2.2c-1.1,1.1-2.2,2.2-3.4,3.4l-1.1,1.1l-0.2,0.1c-0.7,0.4-1.4,0.8-1.9,1.1c-1,0.5-1.9,0.8-2.9,1.2l-1,0.4
	c-1.3,0.5-2.6,1-4,1.3c-1,0.2-2.1,0.4-3.2,0.4h-0.3c-1.1,0-2.1-0.1-3.2-0.3c-0.9-0.1-1.9-0.3-2.8-0.6c-0.7-0.2-1.4-0.6-2.1-1
	c-0.3-0.3-0.6-0.6-1-1l-0.1-0.1c-0.6-0.5-1.3-1.2-1.8-1.7L843,345c-1.1-1.2-1.9-2-3.2-3.1c-0.9-0.9-1.7-1.5-2.5-2.2l-0.9-0.8
	c-0.6-0.5-1.4-1.3-1.9-1.8l-0.4-0.4c-0.1-0.3-0.3-0.5-0.4-0.7c-0.4-0.4-0.8-0.8-1.2-1.2l-0.1-0.1c-0.2-0.2-0.4-0.4-0.5-0.5
	c-0.3-0.4-0.4-0.5-0.8-0.9l-0.3-0.4c-0.5-0.5-0.9-0.9-1.4-1.4c-1-1-2.2-2.1-3.3-3.2s-2.3-2.4-3.4-3.5c-0.2-0.2-0.4-0.4-0.6-0.7
	c-0.4-0.5-0.8-0.9-1.3-1.3c-0.3-0.3-0.6-0.5-1-0.8c-0.2-0.1-0.4-0.3-0.6-0.5c-0.7-0.6-1.3-1.3-2-2l-0.1-0.1
	c-0.4-0.4-0.8-0.8-1.1-1.2l-0.8-0.9c-0.7-0.7-1.5-1.5-2.3-2.3l-0.4-0.3c-0.1,0-0.2-0.2-0.6-0.5c-0.8-0.8-1.8-1.6-2.7-2.3l-14.8-14.7
	l-0.2-0.1c-0.8-0.8-1.6-1.5-2.4-2.3s-1.5-1.5-2.2-2.4l-4.3-4.5c-0.8-0.8-1.6-1.6-2.3-2.3l-1.2-1.1l-0.6-0.6c-1-1-2.1-2-3.2-3
	c-0.9-0.8-1.7-1.4-2.5-2.2s-1.3-1.4-2-2.1l-5.8-6.2l-0.7-0.8l-0.1-0.1c-0.7-0.7-1.3-1.5-2-2.1s-1.2-1.2-1.9-1.7s-1-1-1.6-1.5
	s-15-15.1-15.5-15.5c-0.6-0.6-1.2-1.3-1.9-1.9s-1.3-1.2-2-1.8s-1-0.9-1.5-1.4c-0.7-0.7-1.4-1.2-2.1-1.9l-0.2-0.2l-1.1-1l-0.9-0.9
	c-0.6-0.6-1.2-1.1-1.7-1.5c-0.5-0.4-1-0.8-1.6-1.1l-0.1-0.1c-0.6-0.4-1.2-0.6-1.9-0.6l0,0h-0.5c-0.6,0-1.1,0.3-1.5,0.8l-0.3,0.4
	c-0.4,0.6-0.6,1.3-0.6,2c-0.1,1,0.3,2,1,2.7c0.6,0.8,1.8,2,2.7,3l0.2,0.2c0.7,0.7,1.4,1.4,2.1,2l0.1,0.1c0.5,0.5,1,0.9,1.4,1.4
	l20.5,20.7c0.5,0.5,0.9,1,1.4,1.4l0.1,0.1c0.6,0.6,1.2,1.2,1.7,1.8c0.6,0.6,1.3,1.2,2,1.8c0.3,0.3,0.7,0.5,1,0.9s0.8,0.7,1.2,1.1
	c0.6,0.6,1.3,1.2,1.8,1.7l2.8,2.5l1.2,1.1c0.6,0.5,1.1,1,1.6,1.5s1.3,1.4,2,2.1l0.8,0.9c0.9,1,1.9,2.1,3,3.2c0.8,0.8,1.4,1.4,2.2,2
	l1.2,1l3.8,3.7c0.8,0.7,1.5,1.5,2.3,2.2l1,1c0.5,0.5,1.1,1,1.7,1.6s1.3,1.2,1.8,1.7l18.3,18.4c0.9,0.9,1.8,1.8,2.8,2.7l0.6,0.6
	c0.5,0.5,1,1,1.6,1.6l0.2,0.2c0.4,0.4,0.7,0.7,1.1,1.1l0,0c0.2,0.2,0.4,0.4,0.6,0.6c0.4,0.4,0.8,0.8,1.3,1.2l0.1,0.1l0.5,0.5
	l1.2,1.2l0.1,0.1c0.8,0.8,1.7,1.6,2.4,2.3l1,0.9l0.2,0.2c0.7,0.6,1.6,1.4,2.2,2.1l0.4,0.5c0.3,0.4,0.6,0.7,1.1,1.1l0.2,0.3l0.1,0.1
	c0.3,0.4,0.6,0.7,1,1c0.3,0.2,0.6,0.4,1,0.6l0.3,0.2l0.2,0.1l0.3,0.3c0.2,0.2,0.3,0.4,0.5,0.6c0.5,0.5,1,1.1,1.5,1.6l1.1,1.2
	c0.7,0.8,1.4,1.6,2.2,2.4s1.7,1.7,2.6,2.5l1,0.9l3.7,3.4l1,0.9c0.6,0.5,1.2,1.1,1.9,1.7c1.4,1.1,2.9,2,4.6,2.7l0.7,0.3
	c0.9,0.4,1.9,0.8,2.9,1c1.5,0.3,3.1,0.5,4.6,0.5h0.2c1.5,0,3-0.2,4.4-0.6c1.8-0.4,3.6-0.9,5.4-1.6c1.6-0.7,3.1-1.5,4.6-2.4
	c0.7-0.4,1.4-0.9,2.2-1.4l0.1-0.1c0.4-0.2,0.7-0.5,1-0.8l1.1-1.2c0.6-0.6,1.3-1.3,1.9-1.8l0.1-0.1c0.5-0.5,1-1,1.5-1.4
	c0.3-0.3,0.6-0.6,0.8-0.9l0.1-0.1c0.2-0.3,0.5-0.5,0.7-0.8s0.5-0.5,0.8-0.8s16.6-16.7,19.6-19.6l0.8-0.7c0.5-0.1,0.7-0.4,1.2-0.9
	s0.6-0.7,0.8-1l0.3-0.3c0.3-0.2,0.5-0.5,0.8-0.8l0.8-0.8c0.4-0.4,0.9-0.9,1.2-1.2l0.9-1c0.6-0.6,1.1-1.2,1.7-1.8
	c0.9-1,1.9-1.8,2.9-2.7l3.9-3.5c0.4-0.4,0.8-0.8,1.2-1.2c0.5-0.4,1.2-0.9,1.8-1.4l0.5-0.4c1-1,1.9-1.8,2.9-2.7l0.4-0.3
	c0.5-0.5,4.9-5,14.6-15.3l1.7-1.8l1-1c0.9-0.9,1.6-1.6,2.3-2.4l0.9-1c0.6-0.6,1.4-1.4,2.1-2.1l0.2-0.2l1.3-1.3
	c0.5-0.5,1-0.9,1.5-1.5l1.8-1.6c1.2-1.1,2.6-2.5,3.8-3.8l1.2-1.3l0.1-0.2c0.2-0.3,0.5-0.7,0.7-1l1-1c20.1-19.9,24.8-24.5,25.2-24.8
	l3.4-3.1l0.2-0.2C990.5,239.5,991.3,238.2,990.5,236.4z"/>
<path d="M729.3,195.1c0.4,0.4,0.9,0.7,1.5,0.7h0.5c1,0,2-0.4,4.5-2.9l5.2-5.2c17-16.7,25.9-25.5,26.5-26l0.1-0.1l0.4-0.4l0.5-0.5
	l0,0l0.7-0.7l0.4-0.5c0.2-0.2,0.4-0.4,0.5-0.7c0.1-0.2,0.2-0.3,0.3-0.5l1.2-1.1c0.5-0.5,1-0.9,1.5-1.4l0.1-0.1
	c0.4-0.4,6.7-6.8,13.1-13.2l0.1-0.1c0.2-0.2,0.6-0.5,1-0.9l0.1-0.1c0.3-0.4,0.7-0.7,1-1l3-2.9l0.1-0.1l0.1-0.1l6.3-6.1
	c1.2-1,2.4-2.1,3.4-3.3l0.9-0.9l0.3-0.3l0.8-0.8l0.2-0.2c12.5-12.2,14.3-13.9,14.6-14.2l0.9-1c0.6-0.6,1.1-1.2,1.6-1.8
	s0.9-1,1.4-1.5s2.2-2.3,3.5-3.6c0.6-0.6,1.4-1.2,2-1.8s1-0.9,1.5-1.4c1.1-1,2.2-2,3.5-3.3c5.2-5.2,11.1-9.7,16.9-14l1.5-1.2
	c3.9-2.9,9-3.7,13.6-2c1,0.3,1.9,0.8,2.7,1.5l0.4,0.3c0.1,0.1,0.2,0.2,0.3,0.3L870,84l16,15.9c0.6,0.8,1.3,1.6,2,2.3
	c0.2,0.2,0.3,0.3,0.4,0.4l2.7,2.8l3.5,3.4l6.9,6.6l0.2,0.2c1,1,2,2,3.1,3.1c1.4,1.3,2.8,2.6,3.8,3.5c0.5,0.5,0.9,0.8,1.4,1.3l4.9,5
	l1.2,1.1c0.8,0.8,1.5,1.6,2.3,2.3s1.4,1.3,2,1.9c0.5,0.4,1,0.8,1.4,1.3s1,1,1.5,1.5l0.1,0.1c0.6,0.6,1.2,1.2,1.8,1.8s1,0.9,1.4,1.3
	l0.2,0.1c0.6,0.6,1.2,1.2,1.8,1.8s1.3,1.3,1.9,1.9l0.1,0.1l1.2,1.3l3.4,3.5l1,1l0.2,0.2c0.6,0.7,1.4,1.5,2.2,2.3s1.6,1.5,2.3,2.1
	l0.2,0.1l1,0.9l0.7,0.6l0.2,0.1l0.5,0.4l0.7,0.6c0.5,0.4,1,0.9,1.5,1.3c1.6,1.5,2.9,2.7,3.7,3.6l3.2,3.6l1,1.1
	c0.6,0.7,1.2,1.4,2,2.2l8.6,8.5c0.5,0.5,1,1,1.6,1.6s1.3,1.4,2,2l3.2,3.1c4.8,4.7,7,6.9,7.3,7.1s0.8,0.7,1.3,1.1l1.1,1l0.2,0.2
	c0.9,0.9,1.8,1.7,2.8,2.5c0.5,0.4,1.1,0.6,1.8,0.6h0.6c0.7,0,1.3-0.4,1.6-1l0.4-0.5c0.3-0.6,0.4-1.3,0.3-2c0.1-0.9-0.2-1.8-0.8-2.5
	c-0.2-0.3-1.2-1.5-2.5-2.9c-0.7-0.8-1.5-1.6-2.3-2.4l-1.2-1.2c-0.7-0.7-1.4-1.4-2.1-2.1c-0.4-0.4-7.2-7.2-9.4-9.4l-0.7-0.7
	c-0.4-0.4-0.8-0.8-1.2-1.2l-0.2-0.2c-0.7-0.7-6.5-6.5-7.2-7.2c-1.2-1.2-2.2-2.1-3.3-3.1l-4-3.8c-1.2-1-1.8-1.7-2.9-2.7
	c-0.8-0.8-1.5-1.6-2.3-2.4l-0.4-0.4l-0.8-0.9c-0.9-0.9-2-2.1-3.3-3.3l-0.8-0.8c-0.9-0.9-2-1.9-2.9-2.8c-0.6-0.5-1.1-1-1.7-1.5
	s-1-0.8-1.5-1.3l-1.1-1c-0.8-0.7-1.6-1.5-2.4-2.2c-0.5-0.5-1-1.1-1.6-1.7s-1-1.1-1.6-1.7l-3.5-3.4c-0.4-0.4-0.9-0.9-1.3-1.3
	c-0.7-0.7-1.4-1.4-2.1-2.1s-1.3-1.2-1.9-1.8l-0.1-0.1c-0.4-0.4-0.9-0.8-1.3-1.2l-5.8-5.7c-0.4-0.4-0.9-0.9-1.2-1.2s-0.8-0.9-1.2-1.4
	s-1-1.3-1.7-2s-1.5-1.4-2.2-2.1l-1.3-1.2l-3.5-3.4l-3.4-3.2c-0.5-0.5-1-1-1.5-1.6s-1.2-1.3-1.9-1.9s-1.4-1.2-2-1.8l-0.1-0.1
	c-0.4-0.3-0.8-0.7-1.2-1.1l-1.4-1.3l-0.2-0.1l-0.9-0.6c-1.4-1.5-2.9-3-4.3-4.4c-3.2-3.2-6.6-6.7-10.2-10.2c-0.2-0.2-0.3-0.3-0.5-0.5
	l-0.2-0.2l0,0l-1.1-1.1c-1.3-1.4-2.7-2.5-4.2-3.6l-1.8-0.9c-0.3-0.2-0.7-0.3-1-0.4c-1.6-0.7-3.3-1.2-5-1.4c-1.9-0.2-3.9-0.2-5.9,0
	c-0.8,0.1-1.6,0.2-2.3,0.4l-0.5,0.2c-0.1,0.1-0.3,0.1-0.4,0.2c-2.1,0.9-3.9,2.1-5.6,3.6c-0.5,0.4-1,0.8-1.4,1.2
	c-1.2,0.9-2.4,1.8-3.6,2.7l-1.8,1.4c-7,5.2-13.6,10.9-19.8,17.1l-0.3,0.3c-0.9,0.9-1.7,1.8-2.8,2.7l-3.6,3.4
	c-1.7,1.6-29.5,28.5-30.4,29.4L782,137c-0.2,0.2-0.3,0.4-0.4,0.6l0,0.1c-0.1,0.1-0.4,0.6-0.6,0.9L766,153.7l-0.1,0.1
	c-0.6,0.7-1.1,1.3-1.6,2.1l-0.2,0.3c-0.2,0.1-0.4,0.3-0.6,0.4l-0.4,0.5l-0.6,0.6l-4,3.8l-0.2,0.2c-0.2,0.2-0.4,0.4-0.7,0.8
	c-0.5,0.5-1,1-1.3,1.4l-15.8,15.6l-5.8,5.8c-0.5,0.5-1,0.9-1.5,1.5l-0.1,0.1c-0.6,0.6-1.3,1.2-1.9,1.8c-2.4,2.5-2.7,3.3-2.8,3.9
	l-0.1,0.5c-0.1,0.6,0,1.1,0.4,1.6L729.3,195.1z"/>
<path class="st1" d="M844.2,126.3L844.2,126.3c5.9,0.6,17.9,8.2,20.2,12.2c1.1,1.9,2.3,4.1,3.5,6.2s2.1,4.2,3.7,5.9
	c1.6,1.6,3.5,2.9,5.6,3.8c2.1,0.9,4.5,1.3,7.2,2.2c4.5,1.5,8.5,4.3,11.9,7.1c5.2,4.3,9.4,9.5,14.6,13.9c1.8,1.5,3.7,2.7,5.2,4.2
	c3.3,3.2,4.5,8.1,4.8,14.3c0.2,4,0,8.2,0.1,12c5.2,0.3,10.3-0.5,15.2-2.4c4.1-1.6,8.2-3.9,8.5-8.9c0.1-2.4-0.3-4.1-0.3-6.4
	c-0.2-8.4,7.2-9.6,9.5-15.5c0,2.6-0.5,5.2-1.4,7.7c0.9-0.8,1.5-1.8,1.8-2.9c-0.4,2.2-0.6,5.3-1.6,7.2c0.8-0.5,1.4-1.3,1.8-2.1
	c0.3,9.7-4.4,15.8-9.9,20.1s-13.3,7.4-23.3,7.2c-1.8,5.8-2.4,13.9,0.5,18.9c1.4,2.3,2.5,3.7,2.4,7.2c-0.1,2.1-0.5,4.3-1,6.3
	c-1.2,5.9-2.9,12.2-2.8,19.1c0,1.4,0.2,2.8,0.5,4.2c0.5,2,2.4,6.1-0.7,6.7c0,2.5,0.7,4.3,0.9,6.6c-2.1,0.6-5.1,3.2-8.8,2.5
	c-1.6-0.4-2.6-1.9-2.2-3.5c0,0,0-0.1,0-0.1c0.1-0.6,0.7-1,0.9-1.5c2.1-3.8,2.8-9.5,3-15c0.3-5.2-0.4-10.4-1.9-15.3
	c-0.9-2.6-2.5-4.9-4.7-6.5c-4.1-3.4-8.8-5.7-10-12.4c-5.5,5.7-6.4,16.6-13.2,21.3c0.2,2.7,0.3,6.2-0.5,8.2c-0.3,0-0.3-0.3-0.5-0.5
	c-0.1,1.5,0.1,3.3-0.4,4.5c-0.5,0.1-0.5-0.4-0.8-0.6c-0.2,2.4-0.2,5-1.3,6.4c-0.4,0.3-0.5-0.4-0.8-0.6c-0.5,1.8-0.4,4.2-1.9,5.1
	c-1.1-1.5-1.2-3.9-1.7-5.9c-0.2,6.4,1.1,12.1,4.1,15.5c-0.8,3.3-4.5,8.8-8.7,5.6c-1.1-0.8-1.9-2-2.4-3.3c-0.2-1.2,0.4-2.7,0.5-4.1
	c0.4-4.2-0.1-8.4-1.4-12.4c-0.2,0.9,0,2.3-0.7,2.7c-2.1-0.6-2.5-3.5-3-5.8c-1.1,3.5-3.2-0.5-3.8-2.5c-0.6-1.9-0.9-3.9-1-5.9
	c-0.8,0.9-1.4,4-2.9,4c-0.8,0-1-0.9-1.4-1.6c-0.2,1.6-0.5,5-1.9,4.9c-0.8,0-0.8-1.1-1.3-1.7c-0.5,1.6-0.8,3.5-2.2,4.4
	c-0.6,0.2-0.4-0.5-0.8-0.6c-0.2,1.2-0.5,3.3-1.7,3.2c-0.8,0-1-1.4-1.2-2.4c-0.1,0.9,0.8,4.2-0.7,4.5c-0.8,0.1-1.7-1.4-2-1.9
	c-1.5-2.3-2.9-5.3-4.8-7c-0.5-0.5-1.1-0.6-1.6-1.1c-2.8-2.4-4.2-6-7.7-7.1c-1.8,2.2-2.8,5.1-5.5,6.3c-0.4,0-0.1-0.6-0.2-0.9
	c-1.8,2.9-3.2,6.1-6.5,7.5c-0.3-0.2-0.5-0.6-0.4-1c-0.9,1.2-1.5,2.8-3.4,3.1c-0.3-0.5-0.1-1.2,0.1-1.7c-1.4,1.1-2.4,3.5-5,3.7
	c-0.7-0.5-0.3-2-0.1-2.7c-1.4,1.6-2.7,3.4-3.7,5.3c-1,2.2-0.6,5.1-1.2,7.9c-2.4,0.9-6,2.6-9.5,2.3c-0.8,0-1.6-0.4-2.1-1.1
	c-0.4-2.3,1.2-3.1,2.2-4.2c2-2,3.5-4.4,4.4-7c1.2-3.9,1.5-8,2.5-12.6c-0.5,0.3-1.3,1.6-2.2,1.5c-0.8-0.5-0.7-1.8-0.6-2.8
	c0.2-2.8,0.8-6,1.1-8.6c-0.4-0.1-0.6,0.8-1.3,0.7c0.5-4.6,2.2-8,3.4-11.8c-0.2-0.1-0.7,0.6-1.1,0.3c-0.5-2.3,0.6-4.5,1.2-6.3
	c-0.4,0-0.7,0.9-1.5,0.8c0.1-3.8,2-6.7,3.2-9.8c-0.1-0.2-0.5,0.5-0.7,0.1c0.5-4.5,2.5-8.2,3.6-12.4c1.8,2.5,2.8,5.8,4.7,8.4
	c0.7,1,1.8,1.7,2.3,2.8c1,2.2,1,5.2,1.5,7.8c0.5,2.5,1.3,5.1,3.3,6.3c2.9,1.7,7.7,1.4,12.2,1.7c5.5,0.4,9.3-0.3,11.7-3.3
	c1.3-1.6,2.1-3.6,2.2-5.7c-1.4,3.5-3,7-8.1,6.9c-0.1-0.2,0.4-0.3,0.6-0.7s0.2-0.9,0.4-1.1c0.4-0.9,1.4-1.1,2.1-2
	c1-1.3,0.9-2.6,1-4.9c-0.8,1.6-1.2,3.1-2.6,4.3c-0.7,0.6-1.5,0.8-2.1,1.5s-0.5,2-1.6,2.5c-0.9,0.3-1.9,0.4-2.9,0.2
	c-3-0.1-7.6,0.8-8.3-1.3c-0.4-1.4,0.1-2.2-0.5-3.3c-0.7-1.3-2.5-1.7-2.7-3.9c-1.4,2.8,2,4.2,1.3,7.7c-3.2-0.9-4.2-3.7-4.5-7.7
	c-0.2-2.1,0.1-4.6-0.8-6.2c-0.8-1.1-1.7-2.1-2.6-3c-2.6-3.5-4.3-7.5-5.1-11.7c0.2-0.1,0.9,0.6,1.5,0.8c1.2,0.4,2.5,0.4,3.6,0
	c-0.9-3.3-2.9-5.5-7.3-5.1c-1.6-1.6,0.4-5.2-1.6-6.1c-2.7,0.5-4,2.6-7.2,2.9c-3.7,0.3-8.3-0.5-11.9-0.8v-0.1
	c2.3-2.7,2.9-6.9,6.5-8.3c1.2-0.4,2.5-0.1,3.9-0.2c1.7-0.1,3.4-0.4,5.1-1c-5.2-0.6-8.4-4.1-10.6-8c-2.5-4.6-3.7-9.8-3.5-15
	c1.8,7,5.5,12,13.4,12.6c-1.4-1.1-2.4-6.8,0-8c-0.4-3.2,1.4-6.2,4.5-7.3c0.4-3.8,3.4-5,7.1-5.7c0.5-2.4,1.7-4.2,4.4-4.5
	c0.9-1.7,2.9-2.6,4.8-2.1c0.9-1,2.2-1.5,3.5-1.5c0.6,0,1.1,0.3,1.6,0.4c0.7,0,1.5-0.3,2.3-0.3c2.6-0.1,5.1,0.3,7.5,1.2
	c-1.8-2.8-7.6-3.4-12.7-2.9c-2.1,0.3-4.1,1-5.8,2.1c1.1-5.4,14.8-18.6,16.7-20.4c2.2-1.8,4.9-3,7.7-3.4L844.2,126.3 M862.7,179.5
	c-1,0-3-0.5-3.8-0.3s-1.8,1.9-2.2,3.1c-0.5,1.9,0.2,3.9,1.9,5c3.3,2,7.8-0.1,10.1-1.9c5.2-4.1,7.2-11.4,8.2-19
	c0.1-0.4-0.2-0.4-0.1,0C875.1,174.1,872.3,179.8,862.7,179.5L862.7,179.5z"/>
<path class="st2" d="M876.8,166.5C876.8,166.1,877,166.1,876.8,166.5c-0.9,7.7-2.9,14.9-8.1,19c-2.3,1.8-6.8,3.9-10.1,1.9
	c-1.7-1.1-2.4-3.1-1.9-5c0.3-1.2,1.4-2.9,2.2-3.1s2.9,0.3,3.8,0.3C872.3,179.8,875.1,174.1,876.8,166.5"/>
<path d="M991.3,205.1l2,6c0.1,0.2,0.2,0.3,0.5,0.3h6.3c0.3,0,0.5,0.2,0.5,0.5c0,0.1-0.1,0.3-0.2,0.4l-5.1,3.7
	c-0.2,0.1-0.2,0.3-0.2,0.5l2,6c0.1,0.2,0,0.5-0.3,0.6c-0.1,0.1-0.3,0-0.4-0.1l-5.1-3.7c-0.2-0.1-0.4-0.1-0.5,0l-5.1,3.7
	c-0.2,0.2-0.5,0.1-0.6-0.1c-0.1-0.1-0.1-0.3-0.1-0.4l2-6c0.1-0.2,0-0.4-0.2-0.5l-5.1-3.7c-0.2-0.1-0.3-0.4-0.1-0.6
	c0.1-0.1,0.2-0.2,0.4-0.2h6.3c0.2,0,0.4-0.1,0.4-0.3l2-6c0.1-0.2,0.4-0.3,0.6-0.2C991.2,205,991.2,205,991.3,205.1z"/>
<path d="M726.2,205.1l2,6c0.1,0.2,0.2,0.3,0.4,0.3h6.3c0.3,0,0.5,0.2,0.5,0.4c0,0.2-0.1,0.3-0.2,0.4L730,216
	c-0.2,0.1-0.2,0.3-0.2,0.5l2,6c0.1,0.2-0.1,0.5-0.3,0.6c-0.1,0-0.3,0-0.4-0.1l-5.1-3.7c-0.2-0.1-0.4-0.1-0.5,0l-5.1,3.7
	c-0.2,0.1-0.5,0.1-0.6-0.1c-0.1-0.1-0.1-0.3-0.1-0.4l2-6c0.1-0.2,0-0.4-0.2-0.5l-5.1-3.7c-0.2-0.1-0.3-0.4-0.1-0.6
	c0.1-0.1,0.2-0.2,0.4-0.2h6.3c0.2,0,0.4-0.1,0.4-0.3l2-6c0.1-0.2,0.4-0.3,0.6-0.2C726.1,205,726.1,205,726.2,205.1z"/>
<g>
	<path class="st3" d="M132.9,119.8l-20.7-1.3l0,0L72,116.1c-0.9-0.1-1.7,0.5-1.8,1.4c0,0,0,0.1,0,0.1V143c0,0.8,0.7,1.5,1.6,1.5
		l14.5,0.9v140l-9.7,0.5c-0.8,0-1.5,0.7-1.6,1.5v26.8c0,0.9,0.8,1.6,1.7,1.5c0,0,0,0,0.1,0l53.3,0.2l-0.2-0.5l3-0.2
		c2.7-0.3,5.4-1.2,7.7-2.7l0.1,0c10.2-8.5,15.2-17.4,15.2-27.2V232c0-11.4-3.8-20.8-11.3-27.9c0.3-0.3,0.6-0.7,1-1l0,0l0.4-0.4
		l0.5-0.6l0.2-0.2l0,0c6.1-7.2,9.3-16.4,9.2-25.8v-26.2c0-3.1-0.6-6.2-1.8-9.1C148.3,127.4,141.2,120.3,132.9,119.8z M131,160.9
		v18.2c0,10.2-2.3,14.9-6.7,16.6c-4.3,1.6-8.7,3.4-13.1,5.1v-53.2l11.5,0.5C128.3,148.4,131,152.9,131,160.9z M131,270.4
		c0,8.6-2.2,13-6.6,13.2l-13.3,0.5v-57c0.7-0.2,1.4-0.5,2.1-0.9c4-1.5,8.2-3.1,12.3-4.6c2.2-1,3.6-0.4,4.5,1.6c0.8,2.2,1.1,4.6,1,7
		L131,270.4z"/>
	<path class="st3" d="M244.7,125.7l-22.6-1.4H222c-0.4,0-1.1,0.2-1.3,1.3c0,0,0,154.8,0,154.9c0,2.7,0,7.2-2.7,9.1
		c-2.9,2-8,1.3-11.4,1.1c-3.7-0.2-5.3-2.5-5.3-6v-160c0-0.8-0.5-1.4-1.2-1.5l-22.6-1.4h-0.1c-0.4,0-1.1,0.2-1.3,1.4v161.3
		c0,11.5,6.1,31.3,22.2,31.3c6.5,0,13.9,0.5,20.4-0.1c3.7-0.4,7.5,0.4,10.9-1c11.2-4.5,16.4-19.8,16.4-30.2V127.2
		C246,126.4,245.4,125.8,244.7,125.7z"/>
	<path class="st3" d="M264.4,315.7h0.1l24-0.4c0.7,0,1.3-0.6,1.3-1.3c0,0,0-0.1,0-0.1v-81.5h31c0.7,0.1,1.3-0.4,1.3-1.1
		c0-0.1,0-0.2,0-0.3v-24.4c0-0.7-0.5-1.1-1.3-1.3l-29.1-0.4h-0.5h-1.5v-45.7l31,0.4h0.1c0.3,0,0.7-0.1,0.9-0.3
		c0.3-0.3,0.4-0.6,0.4-1v-25.9c0-0.7-0.5-1.4-1.2-1.4l0,0l-56.3-3.5h-0.1c-0.4,0-1.1,0.2-1.3,1.3v7.5"/>
	<path class="st3" d="M338.4,315.4c0.3,0.3,0.6,0.4,1,0.4h0.1l24-0.4c0.7,0,1.3-0.6,1.3-1.3c0,0,0-0.1,0-0.1v-81.6h31
		c0.7,0.1,1.3-0.4,1.3-1.1c0-0.1,0-0.1,0-0.2v-23.4c0-0.6-0.5-1.1-1.3-1.2l-31.2-0.5v-44.4l31,1.3h0.1c0.6,0.1,1.2-0.4,1.3-1.1
		c0-0.1,0-0.1,0-0.2v-24.5c0-0.7-0.5-1.3-1.2-1.4l0,0l-56.4-3.5h-0.1c-0.7,0-1.3,0.5-1.3,1.2c0,0,0,0,0,0v7.5"/>
	<path class="st3" d="M463.1,139.4l-37.4-1.8c-1.7-0.2-3.3,1.1-3.5,2.8c-1.8,18.6-16,137.1-19.1,174.1c-0.1,0.6,0.4,1.2,1,1.3
		c0.1,0,0.1,0,0.2,0h0.1h23.5l1.2-0.1l1.2-0.7v-0.2c0.9-16.5,4.5-43.9,4.6-47.1L455,267c0,3.5,3.7,31.9,4.6,47
		c0,0.3,0.1,0.6,0.3,0.9c0.3,0.3,0.7,0.4,1.1,0.3l25.5,0.4l1.2-0.7l-21.6-173C465.9,140.5,464.6,139.4,463.1,139.4z M435.8,243.1
		l5.2-62.4c-0.1,0-0.3,0.1-0.4,0.2c-0.1-0.3-0.4-0.6-0.6-0.9c0,0,0-0.1,0-0.1l0,0h0.2c0.2,0.3,0.5,0.5,0.9,0.7l1-12.1
		c0.1-0.7,0.7-1.1,1.3-1.1h2.6c0.6,0,1.2,0.5,1.3,1.1l6.8,74.2L435.8,243.1z"/>
	<path class="st3" d="M441,180.7L441,180.7c0,0.1,0.1,0.1,0.1,0.1L441,180.7z"/>
	<path class="st3" d="M623.2,149.3c-6.3-0.4-12.6-0.8-19-1.1c-5.1-0.4-10.2,0.8-14.6,3.4c-7.2,3.8-11.8,10-11.8,17.7v125.4
		c0,10.4,11.3,21.2,22.8,21.2c0.5,0,1,0,1.5,0h23.5c1.4-0.1,2.9-0.3,4.3-0.6h0.1c13.7-5.3,17.9-13.2,17.9-24.3v-13.7
		c0-16.3,0-59.6,0-75.9c0-8.3,0-16.6,0.1-24.9c0-0.7,0-1.5,0-2.2c0.1-6.3,0.2-11.4-4.9-16.5C637.7,152.7,630.7,149.7,623.2,149.3z
		 M621.3,283.5c0,4.5,0.3,7.5-5.2,8.7l-7,0.3c-7.1,0.3-5.1-12.4-5.1-16.7v-91.3c0-1.9-0.4-4.5-0.2-7c0-1.7,0.5-3.3,1.4-4.7
		c0.9-1,2.2-1.6,3.5-1.5h0.4l7,0.3c2.8,0.1,4.5,1.6,5.2,4.4v38.4c0,10.1,0.1,47.1,0,57.1C621.4,276.7,621.4,278.4,621.3,283.5
		L621.3,283.5z"/>
	<path class="st3" d="M563.1,276.6h-17.2c-0.8-0.1-1.6,0.5-1.6,1.3v13.7h-17V143.2c0-0.4-0.2-1.1-1.3-1.3l-23.9,0.3H502
		c-0.7,0-1.2,0.5-1.3,1.1v170.8c0,0.6,0.4,1.2,1.1,1.2c0.1,0,0.1,0,0.2,0h61.5c0.7,0.1,1.3-0.4,1.3-1.1c0,0,0-0.1,0-0.1V278
		C564.7,277.2,564,276.5,563.1,276.6C563.1,276.6,563.1,276.6,563.1,276.6z"/>
</g>
<g>
	<path class="st3" d="M1111.7,147.2l-56.5,2.8c-0.6,0-1.1,0.5-1.1,1.1c0,0,0,0.1,0,0.1l0.2,19.7c0.1,0.6,0.6,1,1.2,1l9.6-0.3v121.1
		l-10.3,0.4c-0.6-0.1-1.2,0.4-1.3,1c0,0,0,0,0,0.1l-0.3,19.9c0,0.6,0.5,1.5,1.1,1.5h57.2c0.2,0,0.5,0,0.8,0c2.4-0.1,4.7-0.5,6.9-1.2
		h0.1c10.1-5.1,15.3-11.5,15.3-19v-66.8c0-8.6-3.8-15.6-11.2-20.6l2.2-1.8l0,0c6-5.4,9-11.9,9-19.3v-19.5c0-2.4-0.6-4.7-1.8-6.7
		C1127.2,151.2,1120.1,146.7,1111.7,147.2z M1109.9,284c0,3-0.5,5.3-1.6,6.8c-1.1,1.6-3.1,2.4-5,2.1l-13.3-0.2v-57.9
		c0.2,0.1,10.4-2.8,14.3-3.9c2.2-0.7,3.7-0.4,4.6,1.1c0.7,1.5,1.1,3.2,1,4.9L1109.9,284z M1109.9,197c0,6.7-2.2,10.7-6.7,12
		s-8.8,2.6-13.2,3.9v-0.4c0.3,0.1,0-43.4,0-43.4l11.5-0.5c2.9-0.1,5,0.6,6.4,2.2s1.9,3.8,1.9,6.9V197z"/>
	<path class="st3" d="M1226.8,139.9L1226.8,139.9l-22.6,1.3c-0.7,0-1.3,0.6-1.3,1.2v27.7c-0.2,0.2,0,16.6,0,16.6v5l0,0v38.6v0.1l0,0
		v56.1c0,5.2-1.6,7.7-4.9,7.6l-9.1-0.3c-2.5-0.1-3.9-1.8-4.4-5.1v-28c0.2-0.1,0-4.4,0-4.4V143.6c0-0.7-0.5-1.1-1.3-1.2l0,0
		l-22.6,1.4c-0.7,0-1.3,0.5-1.3,1.2v144.1c0,2.1,0.5,4.2,1.4,6.2c4.5,12.1,11.9,19.6,21.9,20.2l22.1,0.1h1.1c3.5,0,7-1,10-2.8l0,0
		c8.2-5.9,12.3-13,12.3-21.2V141.1C1228.1,140.4,1227.7,139.9,1226.8,139.9z"/>
	<path class="st3" d="M1335.8,308.9c0,0-22.3-63.2-27.2-83.6c8.4-6.6,12.7-15.9,12.7-27.6v-21.2c0-14-1.7-41.6-24.2-40.2l-45.5,2.7
		c-0.7,0-1.3,0.6-1.3,1.3v8.6c-0.1,26.6-0.7,165.7,0,165.8l26.1,1.3c0.4,0.1,0.8-0.1,1.1-0.4c0.2-0.2,0.3-0.6,0.3-0.9l-1.6-71.4
		c3-1.3,5.9-2.7,8.9-4.1c3.1,12.6,26.9,75.1,27.6,75.2l23.2,1.3h0.1l1.3-0.6l-0.1-0.3C1337,313.8,1336.6,311.9,1335.8,308.9z
		 M1276.2,216.2v-56.2l12.8-0.6c7.8-0.9,6.3,11,6.3,14.8v28.4C1295.3,207.3,1288.9,211.8,1276.2,216.2L1276.2,216.2z"/>
	<path class="st3" d="M1412.2,137.1c-4.5-3.9-10.6-5.9-16.8-6.5c-1-0.1-1.9-0.2-2.9-0.2c-10.2-0.4-25.4,1-33.7,7.2
		c-4,3.1-7.1,7.1-9,11.7c-3.4,8.2-3.5,17.2-3.4,26c0.1,28.5,0.2,67.9,0.2,96.4c0,6.7,0,13.5,1.7,20s5.1,12.9,10.8,17.1
		c6.1,4.4,14,6,21.8,6.7c6.2,0.8,12.5,0.6,18.6-0.5c6.1-1.2,11.9-4,15.8-8.5c6-7,6.3-16.6,6.3-25.5c0-22.5-0.1-47.1-0.2-69.6
		c0-1.5-0.1-3.2-1.4-4.2c-1.2-0.7-2.5-1-3.9-0.8l-25.4,0.2h-6.6c-0.8,0-1.5,0.6-1.5,1.4c0,0,0,0,0,0l0.2,18.3c0,0.8,0.7,1.4,1.5,1.4
		h11.1c0,0,0.1,35.5,0.1,52.1c0,4.3-0.2,9.1-4.6,11.7c-2.2,1.2-4.9,1.6-7.3,1c-5.9-1.3-9.3-6.2-10.6-11.3c-1-4.1-0.8-8.3-0.6-12.5
		c1.3-28.5,0.7-67.9,0.3-96.4c-0.1-5.4,0.1-11.6,4.4-15.4c3.5-2.9,8.3-3.7,12.5-2.1c4,1.6,6.7,5.6,6.6,9.9c-0.2,3.6,0,10.1,0,10.1
		s23,0.2,24.2-0.8s1.3-2.7,1.3-4.2c0.2-5.8,0.3-11.7-0.8-17.4S1416.9,141.1,1412.2,137.1z"/>
	<path class="st3" d="M1504.5,196.6L1504.5,196.6l-30.8,0.6v-41.1l30.2-1.2c0.7,0,1.3-0.5,1.3-1.2c0-0.1,0-0.1,0-0.2v-28
		c0-0.7-0.5-1.3-1.2-1.4c0,0-0.1,0-0.1,0l0,0l-55.1,3.2c-0.4,0-1.2,0.2-1.3,1.4v185.1c-0.1,0.7,0.4,1.4,1.2,1.5c0.1,0,0.1,0,0.2,0
		l55,0.4h0.1c0.4,0,1.3-0.1,1.3-1.4v-27.9c0-0.7-0.5-1.3-1.2-1.4l-30.3-1.2v-61.2l30.8-0.2c0.7,0,1.3-0.5,1.3-1.2c0-0.1,0-0.2,0-0.2
		v-23.1C1505.9,197.3,1505.3,196.7,1504.5,196.6C1504.6,196.6,1504.6,196.6,1504.5,196.6z"/>
	<path class="st3" d="M1610.8,314.1c-0.2-1.1-4.2-18.4-5.3-24.3c-0.4-2-12.3-47.7-17.3-72c8.4-7.9,12.7-19.1,12.7-33.1
		c0-11.1,0.3-27.2-0.5-38.3v-0.1c-4.7-18.5-12.7-27.5-23.7-26.8l-45.5,2.7c-0.4,0-1.2,0.2-1.3,1.5v8.6c0,13.3-0.6,183.1-0.2,183.2
		l23.2,0.3c0.4,0,0.7-0.1,1-0.3c0.3-0.2,1.9-0.6,1.9-1.1v-75.8c3-1.6,5.9-3.3,8.9-5c2.4,11.7,16.2,62,16.6,63.2
		c3.1,19.1,4.3,18.1,5,18.2l23.3,0.3l1.3-0.7L1610.8,314.1z M1555.8,207.9v-60.1l12.8-0.6c4.2,0.5,6.3,3,6.3,7.7v36.8
		C1574.9,197.1,1568.4,202.6,1555.8,207.9L1555.8,207.9z"/>
	<path class="st3" d="M1618.4,119.4h-5v-3.3h13.6v3.3h-5v13h-3.6V119.4z"/>
	<path class="st3" d="M1629.7,116.1h3.9l4.3,6.9l4.3-6.9h3.9v16.3h-3.6v-10.6l-4.6,7h-0.1l-4.5-6.9v10.6h-3.5L1629.7,116.1z"/>
</g>
</svg>
